# xmcd CD database file
#
# Track frame offsets:
#	150
#	12117
#	24612
#	36397
#	48877
#	60582
#	73350
#	87362
#	99400
#	113207
#	126180
#	136247
#	147987
#	162232
#	175990
#	188090
#	200540
#	214222
#	227205
#	240275
#
# Disc length: 3336 seconds
#
# Revision: 1
# Processed by: cddbd v1.5.2PL0 Copyright (c) Steve Scherf et al.
# Submitted via: CDex 1.51
#
DISCID=1d0d0614
DTITLE=Memphis Slim and His House Rockers with Matt "Guitar" Murphy - The Come Back
DYEAR=2002
DGENRE=Blues
TTITLE0=Only A Fool Has Fun
TTITLE1=The Come Back (Alternate)
TTITLE2=Shuffleboard
TTITLE3=Living The Life I Love
TTITLE4=Cool Down Baby
TTITLE5=Nat Dee Special
TTITLE6=I Love My Baby
TTITLE7=Two Of A Kind
TTITLE8=Smooth Sailin'
TTITLE9=5 O'clock Blues
TTITLE10=Stewball
TTITLE11=The Cat Creeps
TTITLE12=Call Before You Go Home
TTITLE13=Back Alley
TTITLE14=This Is My Lucky Day
TTITLE15=The Come Back
TTITLE16=Midnight
TTITLE17=St. Louis Woman
TTITLE18=5 O'clock Blues (Alternate)
TTITLE19=She's Alright
EXTD=YEAR: 2002
EXTT0=
EXTT1=
EXTT2=
EXTT3=
EXTT4=
EXTT5=
EXTT6=
EXTT7=
EXTT8=
EXTT9=
EXTT10=
EXTT11=
EXTT12=
EXTT13=
EXTT14=
EXTT15=
EXTT16=
EXTT17=
EXTT18=
EXTT19=
PLAYORDER=
